<svg width="18" height="18" viewBox="0 0 18 18" fill="none" xmlns="http://www.w3.org/2000/svg">
<g clip-path="url(#clip0_129_613)">
<path d="M8.99991 0.0314941C7.01537 0.0336775 5.11272 0.822951 3.70936 2.22617C2.30601 3.62938 1.51654 5.53195 1.51416 7.5165C1.51416 9.444 3.00666 12.4605 5.95041 16.482C6.30085 16.9621 6.7597 17.3527 7.28961 17.6219C7.81952 17.8912 8.40552 18.0315 8.99991 18.0315C9.5943 18.0315 10.1803 17.8912 10.7102 17.6219C11.2401 17.3527 11.699 16.9621 12.0494 16.482C14.9932 12.4605 16.4857 9.444 16.4857 7.5165C16.4833 5.53195 15.6938 3.62938 14.2905 2.22617C12.8871 0.822951 10.9845 0.0336775 8.99991 0.0314941ZM8.99991 10.5C8.40657 10.5 7.82655 10.324 7.3332 9.9944C6.83985 9.66476 6.45533 9.19622 6.22827 8.64805C6.00121 8.09987 5.9418 7.49667 6.05755 6.91472C6.17331 6.33278 6.45903 5.79823 6.87859 5.37867C7.29815 4.95912 7.8327 4.67339 8.41464 4.55764C8.99658 4.44188 9.59978 4.50129 10.148 4.72836C10.6961 4.95542 11.1647 5.33994 11.4943 5.83328C11.824 6.32663 11.9999 6.90665 11.9999 7.49999C11.9999 8.29564 11.6838 9.05871 11.1212 9.62132C10.5586 10.1839 9.79556 10.5 8.99991 10.5Z" fill="#FF3131"/>
</g>
<defs>
<clipPath id="clip0_129_613">
<rect width="18" height="18" fill="white"/>
</clipPath>
</defs>
</svg>
