<svg width="28" height="28" viewBox="0 0 28 28" fill="none" xmlns="http://www.w3.org/2000/svg">
<g clip-path="url(#clip0_79_48)">
<path d="M5.83333 23.3334H15.1667C18.3832 23.3334 21 20.7166 21 17.5001V10.5001C21 7.28358 18.3832 4.66675 15.1667 4.66675H5.83333C2.61683 4.66675 0 7.28358 0 10.5001V17.5001C0 20.7166 2.61683 23.3334 5.83333 23.3334ZM28 9.69858V18.2374C28 19.1206 27.51 19.9139 26.7202 20.3082C26.39 20.4727 26.0353 20.5544 25.683 20.5544C25.1918 20.5544 24.7065 20.3969 24.2958 20.0889C24.2527 20.0562 23.3333 19.1439 23.3333 19.1439V8.80141C23.3333 8.80141 24.2503 7.88091 24.2958 7.84708C25.0005 7.31741 25.928 7.23225 26.7202 7.62775C27.5123 8.02325 28 8.81541 28 9.69858Z" fill="black"/>
</g>
<defs>
<clipPath id="clip0_79_48">
<rect width="28" height="28" fill="white"/>
</clipPath>
</defs>
</svg>
